<svg width="23" height="24" viewBox="0 0 23 24" fill="none" xmlns="http://www.w3.org/2000/svg">
<path id="Star 4" d="M9.90793 1.8438C10.5397 0.0733047 13.0435 0.0733049 13.6753 1.8438L15.4778 6.89533C15.6739 7.44488 16.1002 7.88139 16.6449 8.09044L21.7173 10.0369C23.4286 10.6936 23.4286 13.1147 21.7173 13.7714L16.6449 15.7179C16.1002 15.9269 15.6739 16.3634 15.4778 16.913L13.6753 21.9645C13.0435 23.735 10.5397 23.735 9.90793 21.9645L8.10546 16.913C7.90937 16.3634 7.48307 15.9269 6.93831 15.7179L1.86592 13.7714C0.154625 13.1147 0.154629 10.6936 1.86592 10.0369L6.93831 8.09044C7.48307 7.88139 7.90937 7.44488 8.10546 6.89533L9.90793 1.8438Z" fill="url(#paint0_angular_408_130)"/>
<defs>
<radialGradient id="paint0_angular_408_130" cx="0" cy="0" r="1" gradientUnits="userSpaceOnUse" gradientTransform="translate(11.7916 11.9041) rotate(90) scale(15.3394 14.7916)">
<stop stop-color="#03B9BB"/>
<stop offset="1" stop-color="white"/>
</radialGradient>
</defs>
</svg>
